<svg xmlns="http://www.w3.org/2000/svg" width="800" height="535.744" viewBox="0 0 800 535.744"><g data-name="Group 250"><g data-name="Group 249" transform="translate(20 -141.67)"><path data-name="Path 783" d="M283.2 521.27l-87.38 108.2.18 10.992q-9.585.056-18.99-.24l4.35-141.3-.12-1.088.16-.21.41-13.355-95.88-104.45 95.77 94.452.34 2.821 3.28-106.761-82.82-108.284 83.06 89.534-.57-144.388-.18-47.269h.84l1.49 47.269 3.08 97.517 75.47-70.814-75.23 85.827 1.65 95.5 69.46-93.2-69.2 107.241.91 53.1 101.01-129.833-100.7 148.35 2.05 118.075z" fill="#e6e6e6"/><path data-name="Path 784" d="M682.29 438.71L654.64 493l-69.27 136h-15.9l.34-14.72L486.28 493l-12.35-17.93L487.57 493l82.13 107.96.34 3.76L572.62 493l.7-30.57-82.82-144.32 83.06 119.33-.87-294.79v-.98l.03.97 5.5 232.33 75.47-94.38-75.23 114.39 1.27 98.02.38 29.26L596.47 493l53.1-94.96L603.59 493l-23.22 47.97.91 70.77L650.6 493z" fill="#e6e6e6"/><path data-name="Path 785" d="M639.791 627.092c0 12.573-116.406 50.323-260 50.323s-260-37.75-260-50.323 116.406 4.793 260 4.793 260-17.366 260-4.793z" fill="#3f3d56"/><path data-name="Path 786" d="M639.791 627.092c0 12.573-116.406 50.323-260 50.323s-260-37.75-260-50.323 116.406 4.793 260 4.793 260-17.366 260-4.793z" opacity=".2"/><ellipse data-name="Ellipse 59" cx="260" cy="22.765" rx="260" ry="22.765" transform="translate(119.791 604.327)" fill="#3f3d56"/><ellipse data-name="Ellipse 60" cx="107" cy="10" rx="107" ry="10" transform="translate(270.791 619.371)" opacity=".2"/><path data-name="Path 787" d="M586.171 399.63h-116.88v.74h-279.5v40.5c0 104.106 84.394 188.5 188.5 188.5a188.408 188.408 0 0 0 162.832-93.5h45.047a68.12 68.12 0 0 0 0-136.24zm0 115.24H551.7a187.88 187.88 0 0 0 15.087-74v-20.24h19.38a47.12 47.12 0 1 1 0 94.24z" fill="#3f3d56"/><path data-name="Path 788" d="M207.291 417.87v23c0 94.29 76.71 171 171 171s171-76.71 171-171v-23z" fill="#704979"/><path data-name="Path 789" d="M333.579 580.539l-39.148-40.346a21.391 21.391 0 0 1 .456-30.249l59.21-57.451a15.071 15.071 0 0 1 4.9-3.179l12.861-5.139a15.071 15.071 0 0 1 16.409 3.5l40.884 42.132a15.071 15.071 0 0 1 3.209 16.01l-4.326 11a15.071 15.071 0 0 1-3.531 5.3l-60.675 58.873a21.391 21.391 0 0 1-30.248-.456z" fill="#e6e6e6"/><path data-name="Rectangle 759" fill="#3f3d56" d="M393.932 463.311l19.018 19.6-2.94 2.853-19.018-19.6z"/><path data-name="Path 790" d="M403.824 475.572c3.462-8.212 13.778-9.982 21.45-11.61 8.156-1.731 17.446-4.742 20.834-13.224a11.24 11.24 0 0 0-1.1-10.726c-1.994-2.86-5.351-5.187-8.98-4.862-7.6.68-8.948 9.651-6.047 15.312 3.917 7.641 13.975 8.307 21.5 8.5 7.272.182 15.075-.1 21.72-3.382a17.838 17.838 0 0 0 10.014-16.838c-.234-7.337-3.471-14.183-5.4-21.155-1.858-6.7-2.442-14.133 2.5-19.706 4.792-5.4 12.346-7.533 19.234-8.623 1.768-.28 3.548-.47 5.333-.614 1.911-.154 1.928-3.155 0-3-12.77 1.027-29.506 5.427-31.34 20.507-.838 6.893 1.766 13.694 3.868 20.129 1.953 5.981 4.238 12.871 1.739 19.041-2.624 6.477-9.416 9.112-15.851 10.1a63.183 63.183 0 0 1-10.472.567 48.154 48.154 0 0 1-12.063-1.212c-3.387-.929-6.653-2.708-8.259-5.958-1.18-2.388-1.557-5.61-.234-8.022a5.19 5.19 0 0 1 7.326-1.831 8.583 8.583 0 0 1 4.364 8.272c-1.1 8.5-10.813 11.911-17.925 13.5-7.834 1.746-16.674 3.026-22.27 9.437a16.8 16.8 0 0 0-2.839 4.607 1.51 1.51 0 0 0 1.048 1.845 1.537 1.537 0 0 0 1.845-1.048z" fill="#3f3d56"/><circle data-name="Ellipse 61" cx="11" cy="11" r="11" transform="translate(271.791 441.371)" fill="#e6e6e6"/><circle data-name="Ellipse 62" cx="11" cy="11" r="11" transform="translate(473.791 482.371)" fill="#e6e6e6"/><circle data-name="Ellipse 63" cx="8" cy="8" r="8" transform="translate(421.791 543.371)" fill="#e6e6e6"/><path data-name="Path 791" d="M144.61 623.607c32.668 7.288 68.72 1.9 68.72 1.9s-16.913-17.2-49.581-24.488-68.72-1.9-68.72-1.9 16.913 17.198 49.581 24.488z" fill="#e6e6e6"/><path data-name="Path 792" d="M147.832 635.894c35.566 1.026 65.746-10.436 65.746-10.436a173.123 173.123 0 0 0-63.051-14.151c-35.566-1.026-65.746 10.436-65.746 10.436a173.124 173.124 0 0 0 63.051 14.152z" fill="#704979"/><path data-name="Path 793" d="M150.358 611.348c25.408 12.81 62.827 14.411 62.827 14.411s-3.776-19.167-29.185-31.977-62.827-14.411-62.827-14.411 3.777 19.167 29.185 31.977z" fill="#704979"/><path data-name="Path 795" d="M206.791 418.37v23c0 94.29 76.71 171 171 171s171-76.71 171-171v-23z" fill="#704979" opacity=".3"/><path data-name="Path 796" d="M120.133 461.014c-5.807 9.012-12.27 9.3-17.741 5.776q-.191-.123-.376-.25-.374-.255-.726-.527c-4.665-3.6-6.37-9.384-.969-17.766 5.589-8.674 21.82-13.707 23.03-14.072l.069-.021s2.52 17.853-3.287 26.86z" fill="#e6e6e6"/><path data-name="Path 797" d="M523.133 229.839c-5.807 9.012-12.27 9.3-17.741 5.776q-.191-.123-.376-.25-.374-.255-.726-.527c-4.665-3.6-6.37-9.384-.969-17.766 5.589-8.674 21.82-13.707 23.03-14.072l.069-.021s2.52 17.848-3.287 26.86z" fill="#e6e6e6"/><path data-name="Path 798" d="M293.168 162.953c7.263 7.887 5.917 14.215 1.129 18.623q-.167.154-.336.3-.341.3-.692.57c-4.661 3.609-10.684 3.806-17.439-3.529-6.99-7.591-7.78-24.565-7.83-25.828v-.072s17.906 2.05 25.168 9.936z" fill="#e6e6e6"/><path data-name="Path 799" d="M531.176 416.747l-17.229 8.691a7.1 7.1 0 0 1-9.63-2.787l-11.856-23.5a4.516 4.516 0 0 1-.477-1.808l-.226-4.464a5.19 5.19 0 0 1 2.93-4.815l17.992-9.076a5.208 5.208 0 0 1 5.478.4l3.044 2.312a4.525 4.525 0 0 1 1.307 1.566l12.15 24.086a7.1 7.1 0 0 1-3.483 9.395z" fill="#e6e6e6"/><path data-name="Rectangle 761" fill="#3f3d56" d="M500.319 387.66l8.372-4.219.588 1.167-8.372 4.22z"/><path data-name="Rectangle 762" fill="#704979" d="M498.882 396.946l18.567-9.26 2.678 5.37-18.567 9.26z"/><path data-name="Rectangle 763" fill="#704979" d="M502.882 403.946l18.567-9.26 2.678 5.37-18.567 9.26z"/><path data-name="Rectangle 764" fill="#704979" d="M506.882 411.946l18.567-9.26 2.678 5.37-18.567 9.26z"/></g><text data-name="Sorry that must not be your cup of tea" transform="translate(0 142.33)" fill="#1f1f1f" font-size="24" font-family="Montserrat-Regular, Montserrat" letter-spacing="-.036em"><tspan x="187.077" y="23">Sorry that must not be your cup of tea</tspan></text><text data-name="No Results Found" transform="translate(0 40.33)" fill="#0f3f77" font-size="70" font-family="PlayfairDisplay-Bold, Playfair Display" font-weight="700" letter-spacing="-.019em"><tspan x="127.202" y="76">No Results Found</tspan></text></g></svg>